<?xml version="1.0" standalone="no"?>
<!DOCTYPE svg PUBLIC "-//W3C//DTD SVG 20010904//EN"
 "http://www.w3.org/TR/2001/REC-SVG-20010904/DTD/svg10.dtd">
<svg version="1.0" xmlns="http://www.w3.org/2000/svg"
 width="764.000000pt" height="764.000000pt" viewBox="0 0 764.000000 764.000000"
 preserveAspectRatio="xMidYMid meet">
<metadata>
Created by potrace 1.11, written by Peter Selinger 2001-2013
</metadata>
<g transform="translate(0.000000,764.000000) scale(0.100000,-0.100000)"
fill="#000000" stroke="none">
<path d="M3628 7635 c-2 -1 -49 -5 -106 -9 -56 -4 -108 -9 -115 -11 -6 -2 -39
-6 -72 -9 -33 -4 -71 -8 -85 -11 -14 -2 -68 -11 -120 -20 -239 -41 -591 -149
-826 -253 -903 -400 -1603 -1108 -1986 -2007 -85 -200 -180 -494 -212 -660 -3
-11 -9 -40 -15 -65 -5 -25 -15 -76 -21 -115 -6 -38 -13 -82 -15 -96 -3 -14 -7
-51 -10 -81 -3 -30 -7 -64 -9 -75 -23 -117 -24 -616 -1 -783 3 -27 15 -117 21
-163 13 -105 20 -144 45 -247 5 -19 5 -36 0 -38 -8 -3 -2 -32 38 -182 32 -125
61 -216 82 -265 4 -11 15 -42 24 -70 9 -27 20 -54 24 -60 4 -5 13 -28 20 -50
36 -105 156 -342 263 -522 196 -328 499 -685 783 -923 50 -41 95 -79 102 -85
79 -68 289 -212 443 -303 372 -220 771 -372 1196 -456 139 -27 172 -33 249
-41 28 -4 64 -8 80 -11 129 -18 539 -25 715 -11 157 12 388 44 450 62 8 2 31
6 50 9 149 22 569 157 766 246 145 66 361 180 411 217 17 12 34 23 38 23 18 0
373 252 426 302 8 7 41 35 74 63 88 73 329 317 416 420 154 184 339 449 411
590 8 17 44 86 80 155 143 276 298 724 312 906 5 59 7 73 28 174 6 30 12 66
13 80 3 29 16 127 21 152 27 151 21 736 -10 905 -2 10 -7 43 -11 73 -4 30 -9
64 -11 75 -2 11 -9 47 -15 80 -62 348 -218 783 -399 1110 -90 163 -295 476
-331 505 -3 3 -21 25 -40 50 -100 132 -334 376 -464 485 -33 28 -69 58 -80 68
-70 64 -440 327 -459 327 -2 0 -33 17 -67 38 -261 158 -694 334 -977 397 -9 2
-48 11 -87 20 -281 63 -492 86 -812 90 -122 2 -223 2 -225 0z"/>
</g>
</svg>
